<?xml version="1.0" standalone="no"?>
<!DOCTYPE svg PUBLIC "-//W3C//DTD SVG 20010904//EN"
 "http://www.w3.org/TR/2001/REC-SVG-20010904/DTD/svg10.dtd">
<svg version="1.0" xmlns="http://www.w3.org/2000/svg"
 width="500.000000pt" height="500.000000pt" viewBox="0 0 500.000000 500.000000"
 preserveAspectRatio="xMidYMid meet">
<metadata>
Created by potrace 1.16, written by Peter Selinger 2001-2019
</metadata>
<g transform="translate(0.000000,500.000000) scale(0.100000,-0.100000)"
fill="#000000" stroke="none">
<path d="M2315 4399 c-339 -33 -672 -161 -955 -369 -108 -80 -328 -301 -403
-407 -167 -235 -271 -475 -327 -751 -113 -563 40 -1153 413 -1599 498 -593
1317 -822 2062 -575 142 47 375 164 495 249 126 90 366 330 453 453 89 127
196 338 246 485 72 213 101 393 101 625 -1 635 -315 1220 -845 1575 -364 244
-805 355 -1240 314z m155 -234 c37 -19 50 -43 50 -95 0 -34 -6 -48 -32 -71
l-31 -30 37 -38 38 -39 -43 -7 c-41 -7 -44 -6 -81 34 -51 55 -68 54 -68 -4 0
-45 0 -45 -34 -45 -41 0 -42 4 -51 160 -4 58 -9 113 -11 122 -6 21 11 25 114
27 56 1 92 -4 112 -14z m-408 -83 c3 -21 -5 -27 -62 -48 -75 -29 -89 -39 -72
-56 8 -8 22 -7 57 7 25 9 48 15 50 13 3 -2 6 -19 7 -37 3 -32 0 -35 -40 -48
-37 -13 -42 -18 -36 -36 4 -12 7 -23 8 -24 1 -1 37 11 80 28 43 17 80 29 82
27 2 -2 5 -19 6 -37 l3 -33 -103 -40 c-57 -22 -107 -36 -112 -32 -8 9 -97 238
-102 263 -2 10 32 28 107 57 115 44 119 44 127 -4z m1030 -14 c59 -33 83 -70
83 -126 -1 -84 -61 -162 -125 -162 -22 0 -22 -1 -6 -19 16 -18 16 -20 -14 -41
-17 -12 -35 -19 -39 -14 -4 5 -27 34 -52 64 -24 30 -49 60 -55 65 -49 44 -57
117 -21 185 43 82 134 101 229 48z m-1454 -190 c7 -20 8 -34 3 -36 -26 -9 -93
-66 -103 -87 -15 -33 6 -81 44 -101 35 -18 58 -12 104 28 l34 30 -25 34 -25
33 26 20 c15 12 29 21 33 21 3 -1 23 -23 44 -50 l38 -49 -26 -39 c-31 -47
-102 -100 -144 -108 -49 -10 -97 4 -131 39 -92 92 -62 204 74 279 41 23 40 23
54 -14z m1793 11 l29 -21 -42 -50 c-58 -67 -88 -110 -88 -125 0 -7 14 -28 31
-48 24 -27 39 -35 64 -35 29 0 41 9 96 74 l62 75 28 -22 c15 -12 27 -25 26
-29 -6 -21 -117 -139 -148 -157 -46 -26 -72 -26 -127 0 -87 43 -124 133 -84
206 16 30 113 153 120 153 2 0 17 -9 33 -21z m-736 -253 c186 -33 307 -79 455
-174 163 -105 197 -145 148 -176 -13 -8 -26 -2 -65 30 -307 258 -726 332
-1118 199 -278 -95 -534 -334 -648 -605 -69 -164 -82 -233 -81 -430 1 -186 12
-250 75 -418 21 -55 22 -64 9 -72 -37 -24 -61 7 -106 140 -63 188 -72 448 -20
645 64 248 228 488 439 643 145 108 357 197 522 221 96 14 303 12 390 -3z
m-1349 -82 c41 -19 68 -66 60 -100 -6 -23 -4 -24 49 -24 30 0 55 -3 55 -6 0
-3 -9 -18 -20 -34 -15 -21 -30 -28 -71 -33 -28 -4 -57 -12 -65 -18 -12 -10 -8
-16 21 -36 l36 -24 -18 -30 c-9 -16 -21 -29 -26 -29 -10 0 -247 160 -247 167
0 11 81 121 106 144 47 43 69 47 120 23z m2493 -113 c34 -54 61 -100 61 -103
0 -7 -60 -32 -64 -27 -2 2 -21 32 -43 66 -34 55 -41 61 -56 50 -16 -11 -15
-15 8 -49 14 -20 25 -41 25 -46 0 -10 -58 -38 -64 -31 -1 2 -13 21 -25 41 -19
32 -25 36 -42 28 -10 -6 -19 -13 -19 -16 0 -2 18 -33 40 -68 22 -35 40 -66 40
-69 0 -4 -13 -13 -30 -22 l-30 -15 -26 42 c-15 24 -42 67 -60 96 -19 29 -34
56 -34 60 0 7 238 160 252 161 3 1 34 -43 67 -98z m-973 -128 c-3 -10 -26 -99
-51 -198 -26 -99 -48 -181 -50 -183 -4 -4 -96 275 -97 296 -1 9 2 34 6 54 7
41 7 41 134 46 57 2 63 1 58 -15z m-242 -86 c16 -50 74 -225 128 -387 54 -162
98 -296 98 -297 0 -2 -6 -3 -14 -3 -8 0 -18 18 -24 43 -22 84 -93 167 -191
223 -33 18 -36 26 -102 248 -38 126 -68 231 -66 232 3 3 117 31 132 33 6 0 23
-41 39 -92z m826 -26 c0 -14 -14 -102 -30 -196 -17 -93 -39 -226 -50 -295 -11
-69 -23 -135 -26 -147 -5 -17 -1 -25 12 -29 33 -12 54 -36 54 -63 0 -23 -27
-155 -111 -541 -12 -52 -25 -115 -30 -140 -13 -63 -28 -97 -47 -105 -25 -11
-412 -16 -412 -6 0 5 7 14 16 22 18 15 54 82 54 102 0 8 11 19 24 25 44 20
107 84 133 136 38 74 38 181 1 251 -45 85 -147 164 -214 165 -19 0 -20 3 -10
60 l10 60 254 0 c236 0 253 1 250 18 -3 14 -16 18 -71 20 -37 2 -67 7 -67 12
0 9 70 489 91 620 l12 75 78 -9 c76 -9 79 -11 79 -35z m-430 22 c0 -5 -14 -78
-30 -163 -17 -85 -44 -229 -62 -320 -17 -91 -34 -168 -38 -172 -3 -4 -27 59
-54 140 l-48 147 41 161 c58 231 48 214 126 214 36 0 65 -3 65 -7z m-1897 -60
c64 -19 100 -36 123 -59 31 -28 34 -37 34 -89 0 -151 -86 -202 -255 -152 l-80
23 3 34 c1 19 4 36 6 37 2 2 45 -8 95 -22 50 -15 100 -24 111 -20 44 14 66
108 33 138 -10 8 -57 27 -105 41 l-86 27 9 32 c5 17 9 33 9 34 0 6 16 2 103
-24z m2090 1 c24 -5 27 -9 23 -32 -3 -15 -21 -139 -41 -277 -48 -345 -42 -315
-71 -315 -19 0 -24 4 -20 18 18 61 87 445 82 457 -3 10 -19 15 -45 15 -22 0
-42 3 -44 8 -3 4 -3 38 0 75 l6 68 41 -6 c23 -3 54 -8 69 -11z m807 -128 c17
-59 30 -109 28 -111 -2 -1 -17 -6 -35 -10 l-32 -6 -22 75 c-17 59 -26 76 -41
76 -21 0 -22 -9 -6 -62 13 -44 4 -58 -38 -58 -17 0 -24 10 -34 45 -12 44 -23
52 -47 37 -9 -6 -8 -24 8 -76 24 -79 20 -96 -19 -96 -28 0 -30 3 -61 111 -18
61 -31 112 -29 113 13 10 284 82 290 77 3 -3 20 -55 38 -115z m-1662 -24 c18
-59 32 -109 32 -112 0 -3 -35 1 -78 9 l-78 14 -17 81 c-10 44 -14 83 -10 87
10 9 72 27 98 28 17 1 25 -16 53 -107z m136 -7 c46 -162 45 -156 22 -149 -74
23 -80 29 -100 100 -11 38 -21 74 -23 80 -4 12 68 45 78 35 3 -3 14 -33 23
-66z m1048 48 c27 -34 87 -178 115 -278 25 -92 27 -115 28 -280 0 -231 -20
-323 -109 -509 -154 -321 -445 -551 -805 -637 -105 -25 -327 -35 -443 -19
-111 16 -237 53 -346 105 -121 57 -154 81 -150 109 5 33 41 31 105 -6 478
-278 1129 -150 1457 287 253 336 298 759 120 1132 -38 80 -39 84 -22 101 17
17 32 15 50 -5z m-395 -66 c1 -1 -17 -101 -41 -222 l-42 -220 -67 -3 c-37 -2
-67 -1 -67 2 0 11 81 421 86 440 5 16 13 18 67 11 34 -3 63 -7 64 -8z m-871
-112 c151 -17 345 -96 420 -171 63 -63 86 -120 82 -208 l-3 -71 -255 2 c-140
1 -406 3 -591 3 -324 1 -337 2 -355 21 -61 67 41 258 181 339 90 51 189 78
335 89 52 4 104 6 115 5 11 -2 43 -5 71 -9z m1804 -184 c0 -38 -3 -43 -90
-108 -49 -37 -89 -71 -90 -75 0 -5 41 -8 90 -8 l90 0 0 -35 0 -35 -155 0 -155
0 0 40 c0 38 3 42 90 107 50 37 90 71 90 75 0 5 -40 8 -90 8 l-90 0 0 35 0 35
155 0 155 0 0 -39z m-2905 -7 c30 -12 48 -66 53 -161 l5 -93 -65 0 c-36 0
-106 -3 -156 -6 l-92 -7 0 90 c0 99 12 148 40 163 27 15 61 12 81 -6 16 -14
19 -14 38 5 21 21 63 27 96 15z m1105 -297 l415 -3 54 -28 c39 -20 51 -30 40
-36 -11 -6 -72 -17 -112 -19 -4 -1 -29 -21 -55 -45 -27 -25 -60 -50 -76 -55
-37 -15 -108 -13 -186 4 -84 18 -205 14 -245 -7 -18 -10 -43 -38 -59 -68 -31
-56 -67 -81 -94 -64 -9 6 -53 55 -98 110 -98 121 -144 152 -237 161 -37 3 -67
9 -67 14 0 4 12 16 26 26 23 17 41 19 153 16 69 -2 313 -4 541 -6z m620 -74
c81 -54 130 -139 130 -226 0 -58 -48 -155 -93 -190 -20 -15 -38 -27 -41 -27
-2 0 -12 24 -20 53 -9 28 -24 63 -34 76 -18 22 -18 24 0 59 10 20 18 51 18 70
0 35 -29 100 -54 121 -22 18 -20 26 9 39 14 6 25 18 25 27 0 20 29 19 60 -2z
m-1229 -23 c47 -13 112 -71 180 -160 56 -74 101 -110 137 -110 28 0 82 47 98
85 22 53 48 69 122 73 38 2 101 -3 144 -12 150 -31 224 -16 295 60 42 45 78
45 120 2 53 -57 66 -104 41 -151 -36 -68 -21 -66 -619 -68 -716 -2 -637 -6
-655 36 -19 46 -18 129 2 171 17 36 67 84 87 84 7 0 28 -5 48 -10z m-631 -59
c0 -5 3 -16 6 -24 4 -11 -6 -19 -31 -27 -36 -12 -37 -13 -30 -49 9 -49 12 -52
41 -41 38 15 52 12 59 -11 4 -11 5 -22 3 -25 -11 -11 -203 -63 -209 -56 -4 4
-9 16 -11 26 -2 14 6 21 37 30 42 13 44 20 24 73 -7 18 -14 23 -27 18 -49 -19
-69 -17 -75 6 -3 13 -5 25 -3 26 6 7 181 61 199 62 9 1 17 -3 17 -8z m2949
-20 c12 -8 11 -15 -3 -50 -31 -78 -11 -101 25 -28 29 58 48 77 76 77 59 0 79
-71 45 -160 -17 -44 -36 -57 -59 -42 -10 6 -8 20 7 60 23 60 25 82 8 82 -7 0
-23 -23 -35 -50 -28 -65 -62 -82 -101 -53 -22 17 -27 28 -26 65 0 50 21 108
38 108 6 0 17 -4 25 -9z m-1161 -271 c40 -79 26 -153 -45 -230 -73 -82 -54
-80 -608 -79 -528 0 -530 0 -600 53 -79 61 -96 166 -39 248 l27 38 589 0 c374
0 595 3 606 10 29 17 46 7 70 -40z m1264 34 c14 -4 15 -9 6 -30 -6 -13 -20
-24 -30 -24 -26 0 -56 -65 -41 -89 10 -16 4 -39 -14 -60 -4 -6 -163 151 -163
161 0 4 5 19 10 33 l10 27 103 -7 c56 -4 110 -9 119 -11z m-2953 -21 c12 -26
9 -30 -73 -112 l-85 -85 -12 27 c-9 20 -9 30 0 41 16 19 -15 86 -41 86 -16 0
-38 27 -38 49 0 10 50 15 176 19 57 2 62 0 73 -25z m61 -122 l21 -30 -41 -67
-41 -66 33 5 c119 21 122 21 141 -12 l18 -30 -92 -62 c-87 -58 -93 -61 -106
-43 -19 26 -18 28 35 63 l47 32 -50 -6 c-27 -3 -58 -7 -69 -8 -39 -4 -41 27
-7 83 18 29 31 54 29 56 -2 2 -24 -10 -48 -26 -44 -29 -70 -27 -70 6 0 10 155
127 177 133 1 1 11 -12 23 -28z m2694 -12 c17 -14 26 -30 26 -50 0 -29 1 -29
40 -23 45 7 47 4 24 -31 -13 -19 -25 -25 -55 -25 -21 0 -41 -5 -45 -12 -6 -10
15 -33 39 -41 11 -3 -13 -47 -25 -47 -4 0 -38 19 -75 43 -38 24 -79 50 -93 57
-25 13 -25 13 -6 -8 18 -20 18 -22 -2 -50 -12 -16 -28 -35 -37 -42 -11 -9 -12
-16 -4 -26 8 -10 16 -7 37 17 27 30 28 30 45 11 17 -18 16 -20 -4 -46 -17 -21
-19 -30 -10 -39 9 -9 22 -1 54 36 41 48 43 48 59 30 17 -19 16 -22 -38 -87
-49 -59 -58 -66 -72 -54 -52 40 -147 122 -150 128 -2 4 19 34 46 66 27 33 61
79 77 104 69 108 114 132 169 89z m-2463 -301 c16 -40 -1 -78 -36 -78 -20 0
-25 -5 -25 -25 0 -31 -40 -59 -71 -50 -24 8 -119 92 -119 106 0 5 35 42 78 83
l77 75 42 -41 c23 -23 47 -54 54 -70z m2164 -5 c11 -15 8 -22 -26 -51 -21 -19
-39 -40 -39 -48 0 -19 4 -18 52 16 49 36 102 40 118 11 21 -41 12 -72 -39
-122 -52 -52 -74 -60 -90 -31 -8 16 -3 24 35 50 77 55 75 94 -2 43 -58 -38
-97 -40 -120 -6 -22 34 -12 67 37 115 46 45 56 48 74 23z m-2095 -48 c10 -12
5 -24 -29 -68 -47 -61 -50 -81 -19 -114 35 -37 62 -30 110 32 23 30 45 55 48
55 4 0 15 -6 25 -14 18 -13 18 -16 -20 -62 -55 -70 -75 -84 -119 -84 -69 0
-137 74 -122 133 8 32 86 137 101 137 7 0 18 -7 25 -15z m2008 -169 l73 -50
-21 -20 c-16 -17 -24 -19 -39 -9 -15 10 -24 7 -49 -15 -17 -15 -32 -36 -34
-46 -3 -19 -33 -44 -42 -36 -2 3 -17 53 -32 112 l-28 106 24 20 c28 23 11 30
148 -62z m-1799 12 c63 -37 91 -69 91 -103 0 -39 -32 -75 -66 -75 -24 0 -26
-3 -22 -40 2 -22 2 -40 1 -40 -1 0 -13 5 -27 11 -24 12 -36 35 -36 77 0 28
-23 29 -42 1 -12 -19 -17 -20 -37 -10 -12 7 -21 16 -19 19 17 39 105 182 112
182 5 0 25 -10 45 -22z m1573 -45 c2 -18 -6 -27 -42 -45 -37 -19 -46 -28 -48
-54 -6 -64 61 -85 118 -38 30 25 31 26 50 9 19 -17 19 -20 4 -36 -23 -26 -95
-59 -127 -59 -15 0 -41 13 -61 31 -82 71 -45 176 72 208 32 10 29 11 34 -16z
m-1334 -75 c13 -4 32 -14 43 -21 16 -12 17 -16 4 -34 -15 -21 -15 -21 -52 -2
-49 25 -78 24 -97 -3 -26 -36 -20 -66 17 -88 42 -26 56 -25 67 6 8 20 14 24
33 18 31 -9 31 -8 11 -59 l-17 -46 -41 7 c-95 15 -155 73 -142 137 18 88 82
119 174 85z m1084 -40 c3 -20 -4 -25 -46 -38 -78 -24 -72 -42 12 -34 68 6 70
6 88 -20 26 -40 10 -76 -46 -103 -25 -12 -61 -25 -81 -28 -33 -6 -37 -5 -41
19 -4 22 -1 27 21 32 80 18 101 26 101 39 0 11 -14 13 -69 8 -66 -5 -69 -5
-86 21 -31 46 -1 88 85 119 35 13 59 7 62 -15z m-953 -7 c11 -7 11 -18 1 -62
-16 -74 -11 -101 24 -117 49 -24 71 -5 91 77 17 70 26 80 54 62 12 -8 13 -18
2 -68 -16 -71 -35 -109 -60 -123 -47 -25 -137 -1 -167 44 -18 28 -16 75 6 157
11 39 23 46 49 30z m767 -129 c30 -52 54 -98 54 -103 0 -5 -13 -9 -30 -9 -16
0 -30 5 -30 10 0 13 -56 13 -81 0 -10 -6 -19 -17 -19 -25 0 -10 -10 -15 -29
-15 l-28 0 18 103 c10 56 19 107 19 114 0 13 25 22 54 20 12 -1 37 -34 72 -95z
m-418 72 c16 -3 22 -11 22 -30 0 -26 0 -26 -60 -19 -51 6 -60 5 -60 -9 0 -9 8
-16 19 -16 35 0 51 -12 51 -37 0 -24 -2 -25 -40 -20 -34 4 -40 2 -40 -13 0
-14 12 -19 60 -24 59 -7 69 -16 51 -44 -6 -11 -27 -12 -91 -6 l-82 7 7 96 c9
137 5 130 78 124 34 -2 72 -6 85 -9z m180 0 c15 -4 22 -14 22 -30 0 -21 -5
-23 -55 -26 -56 -3 -80 -21 -35 -26 95 -10 120 -25 120 -71 0 -45 -32 -65
-112 -69 -74 -5 -94 4 -84 35 5 17 13 19 61 15 37 -3 60 0 71 9 14 12 14 14
-3 20 -10 4 -34 8 -54 8 -47 1 -81 29 -81 65 0 35 20 56 63 66 44 10 59 11 87
4z"/>
<path d="M2947 4008 c-22 -17 -36 -68 -26 -95 10 -28 48 -52 92 -60 81 -13
120 107 48 150 -34 20 -90 22 -114 5z"/>
<path d="M3614 4098 c154 -123 199 -162 269 -232 245 -249 417 -555 501 -895
45 -181 51 -236 51 -486 0 -166 3 -221 8 -180 5 33 6 152 4 265 -6 236 -28
364 -98 567 -134 388 -412 755 -729 961 l-35 23 29 -23z"/>
<path d="M4415 2183 c-20 -164 -98 -395 -196 -583 -233 -443 -647 -796 -1106
-942 -57 -18 -103 -36 -103 -40 0 -3 12 -2 28 2 294 93 520 217 740 405 276
235 495 574 597 923 37 129 66 275 56 285 -5 5 -12 -18 -16 -50z"/>
</g>
</svg>
